<?xml version="1.0" standalone="no"?>
<!DOCTYPE svg PUBLIC "-//W3C//DTD SVG 20010904//EN"
 "http://www.w3.org/TR/2001/REC-SVG-20010904/DTD/svg10.dtd">
<svg version="1.0" xmlns="http://www.w3.org/2000/svg"
 width="240.000000pt" height="240.000000pt" viewBox="0 0 240.000000 240.000000"
 preserveAspectRatio="xMidYMid meet">

<g transform="translate(0.000000,240.000000) scale(0.100000,-0.100000)"
fill="#000000" stroke="none">
<path d="M270 2351 c-87 -27 -165 -95 -204 -180 -21 -46 -21 -51 -24 -935 -3
-979 -4 -961 58 -1051 32 -46 90 -91 150 -116 29 -12 180 -14 950 -14 l915 0
53 24 c66 30 144 113 166 177 14 42 16 148 16 950 0 891 0 904 -21 959 -28 74
-100 146 -174 174 -55 21 -67 21 -958 20 -496 0 -913 -4 -927 -8z m1380 -364
c0 -5 -7 -32 -14 -60 -8 -29 -20 -71 -26 -94 l-11 -42 -126 -3 -126 -3 -77
-285 -78 -285 -156 -3 c-96 -1 -156 1 -156 7 0 6 34 132 75 282 41 150 75 276
75 281 0 4 -49 8 -110 8 -60 0 -110 3 -110 6 0 8 52 188 57 196 6 11 783 6
783 -5z m-1040 -1001 c0 -34 -13 -46 -50 -46 l-38 0 -23 -87 -24 -88 -52 -3
-51 -3 24 88 c13 48 24 89 24 90 0 2 -16 3 -35 3 -26 0 -33 4 -30 15 3 8 7 22
10 30 6 22 245 22 245 1z m214 -63 c3 -42 6 -96 6 -120 l0 -43 -55 0 c-48 0
-55 2 -55 20 0 17 -7 20 -43 20 -31 0 -49 -6 -62 -20 -12 -13 -31 -20 -57 -20
-21 0 -38 2 -38 6 0 3 42 57 93 120 l92 114 56 0 56 0 7 -77z m258 52 l13 -25
36 26 c29 20 46 25 85 22 l49 -3 -71 -52 -72 -52 29 -60 c16 -33 29 -63 29
-66 0 -3 -27 -5 -60 -5 -56 0 -60 2 -75 30 l-16 31 -43 -31 c-36 -26 -50 -31
-91 -28 l-49 3 77 58 c42 31 77 60 77 63 0 2 -11 27 -25 54 -14 27 -25 52 -25
55 0 3 27 5 60 5 53 0 61 -3 72 -25z m306 13 c-3 -7 -18 -61 -33 -120 l-29
-108 -53 0 c-29 0 -53 3 -53 8 0 4 9 39 19 77 11 39 24 89 31 113 l11 42 55 0
c41 0 55 -3 52 -12z m282 5 c0 -5 -3 -18 -6 -30 -6 -20 -13 -22 -88 -25 -101
-4 -107 -22 -8 -26 83 -3 84 -6 54 -97 l-17 -50 -127 -3 c-71 -1 -128 -1 -128
2 0 3 4 16 10 30 9 25 13 26 90 26 64 0 80 3 80 15 0 12 -14 15 -64 15 -36 0
-67 4 -70 8 -4 7 10 68 29 130 3 9 37 12 125 12 66 0 120 -3 120 -7z m38 -5
c-3 -7 -18 -61 -34 -120 -15 -60 -32 -108 -37 -108 -5 0 -7 8 -5 18 47 168 64
222 71 222 5 0 7 -6 5 -12z m42 -1 c0 -16 -58 -218 -65 -225 -15 -16 -16 15
-1 70 40 145 48 168 57 168 5 0 9 -6 9 -13z m44 -69 c-14 -46 -29 -100 -35
-120 -7 -28 -15 -38 -30 -38 -15 0 -19 5 -15 15 3 8 17 59 32 113 31 114 30
112 53 112 18 0 17 -5 -5 -82z m96 80 c0 -2 -16 -55 -34 -118 -31 -109 -35
-115 -61 -118 -20 -3 -26 0 -23 10 3 7 17 56 32 108 15 52 29 101 31 108 3 9
56 19 55 10z m100 0 c0 -2 -15 -55 -33 -118 l-32 -115 -38 -3 c-22 -2 -37 1
-37 8 0 9 34 137 56 213 4 12 16 17 45 17 21 0 39 -1 39 -2z m138 -10 c-3 -7
-18 -61 -34 -120 l-28 -108 -58 0 c-32 0 -58 3 -58 6 0 4 14 58 31 120 l31
114 60 0 c44 0 59 -3 56 -12z m-1738 -290 c0 -2 -15 -55 -33 -118 l-32 -115
-48 -3 c-38 -3 -47 0 -47 13 0 13 41 171 55 213 3 7 23 12 55 12 27 0 50 -1
50 -2z m98 -10 c-3 -7 -18 -61 -33 -120 l-29 -108 -34 0 c-23 0 -33 4 -30 13
3 6 18 60 34 120 l28 107 34 0 c23 0 33 -4 30 -12z m72 -1 c0 -7 -6 -36 -14
-63 -8 -27 -21 -75 -30 -106 -15 -51 -19 -58 -42 -58 -17 0 -24 5 -22 13 3 6
18 60 34 119 26 97 31 108 52 108 12 0 22 -6 22 -13z m57 -4 c-2 -10 -17 -64
-32 -120 -18 -65 -33 -103 -42 -103 -7 0 -13 5 -13 11 0 8 35 138 56 212 3 9
12 17 21 17 10 0 14 -6 10 -17z m27 -70 c-14 -49 -27 -100 -31 -116 -7 -32
-23 -46 -23 -20 0 11 11 59 25 108 33 117 33 115 44 115 5 0 -2 -39 -15 -87z
m52 70 c-3 -10 -17 -61 -32 -113 -39 -140 -48 -133 -11 9 17 66 35 121 40 121
5 0 6 -8 3 -17z m114 10 c0 -5 -9 -42 -20 -83 -22 -86 -20 -90 52 -90 46 0 46
0 39 -27 -7 -28 -8 -28 -99 -31 -75 -2 -93 0 -98 12 -3 8 7 63 22 121 l27 105
39 0 c21 0 38 -3 38 -7z m216 -10 c-3 -10 -17 -64 -32 -120 l-27 -103 -39 0
c-33 0 -38 3 -34 18 2 9 17 63 32 120 l27 102 39 0 c33 0 38 -3 34 -17z m254
2 c10 -12 9 -24 -2 -60 -8 -24 -11 -46 -7 -47 10 -3 -9 -87 -24 -105 -6 -8
-35 -13 -78 -13 -59 0 -69 3 -69 18 0 29 13 40 49 44 46 4 52 26 9 30 -27 2
-32 7 -30 23 6 40 12 45 52 45 22 0 40 5 40 10 0 6 -24 10 -53 10 l-53 0 -23
-90 -24 -90 -33 0 c-25 0 -34 4 -34 16 0 17 49 203 57 217 2 4 51 7 107 7 80
0 106 -3 116 -15z m300 -3 c0 -10 -7 -41 -15 -69 -14 -48 -36 -70 -56 -57 -14
8 -11 -3 11 -46 11 -22 20 -42 20 -45 0 -3 -16 -5 -35 -5 -32 0 -37 4 -60 49
-21 42 -23 54 -14 81 10 27 16 31 42 28 18 -2 32 2 34 10 3 8 -11 12 -51 12
l-55 0 -11 -42 c-37 -142 -31 -133 -78 -136 -23 -2 -42 1 -42 5 0 5 9 40 19
78 11 39 24 89 31 113 l11 42 124 0 c114 0 125 -2 125 -18z m230 11 c0 -5 -3
-18 -6 -30 -6 -21 -12 -23 -69 -23 -41 0 -65 -4 -68 -12 -3 -10 10 -12 54 -10
63 4 72 -5 49 -49 -9 -15 -22 -19 -70 -19 -47 0 -60 -3 -60 -15 0 -13 21 -15
147 -13 106 2 147 6 151 16 3 9 -13 12 -56 12 -77 0 -85 10 -68 77 8 28 17 56
20 62 5 7 49 11 118 11 110 0 110 0 104 -22 -3 -13 -6 -26 -6 -30 0 -5 -36 -8
-80 -8 -94 0 -107 -15 -19 -23 34 -3 66 -10 71 -15 13 -13 -8 -107 -29 -127
-12 -12 -53 -15 -219 -15 -237 0 -227 -5 -200 99 9 36 22 83 27 104 l10 37 99
0 c55 0 100 -3 100 -7z"/>
<path d="M690 885 l-23 -25 26 0 c22 0 27 5 27 25 0 14 -1 25 -3 25 -2 0 -14
-11 -27 -25z"/>
</g>
</svg>
